<svg width="32" height="32" viewBox="0 0 32 32" xmlns="http://www.w3.org/2000/svg">
  <path d="M13 10C13 10 11.5 7 8.5 7C5.5 7 4 8.5 4 11C4 13.5 6.5 14.5 9 15.5C11.5 16.5 14 17.5 14 20C14 22.5 12 24.5 8.5 24.5C5 24.5 3.5 21.5 3.5 21.5" stroke="#E8A838" stroke-width="2.5" stroke-linecap="round" fill="none"/>
  <path d="M28.5 10C28.5 10 27 7 24 7C21 7 19.5 8.5 19.5 11C19.5 13.5 22 14.5 24.5 15.5C27 16.5 29.5 17.5 29.5 20C29.5 22.5 27.5 24.5 24 24.5C20.5 24.5 19 21.5 19 21.5" stroke="#E8A838" stroke-width="2.5" stroke-linecap="round" fill="none"/>
</svg>
